<mxfile host="65bd71144e" modified="2023-05-24T08:06:30.764Z" agent="Mozilla/5.0 (Macintosh; Intel Mac OS X 13_3_1) AppleWebKit/537.36 (KHTML, like Gecko) Code/1.77.3 Chrome/102.0.5005.196 Electron/19.1.11 Safari/537.36" etag="QnrmgH4txOKIN7zfarZy" version="21.3.3" type="embed">
    <diagram id="-wZQLOmnrPF0d2zAqaTY" name="ページ1">
        <mxGraphModel dx="1126" dy="1520" grid="0" gridSize="10" guides="1" tooltips="1" connect="1" arrows="1" fold="1" page="1" pageScale="1" pageWidth="2200" pageHeight="1200" background="#ffffff" math="0" shadow="0">
            <root>
                <mxCell id="0"/>
                <mxCell id="1" parent="0"/>
                <mxCell id="23" value="AWS Cloud" style="points=[[0,0],[0.25,0],[0.5,0],[0.75,0],[1,0],[1,0.25],[1,0.5],[1,0.75],[1,1],[0.75,1],[0.5,1],[0.25,1],[0,1],[0,0.75],[0,0.5],[0,0.25]];outlineConnect=0;gradientColor=none;html=1;whiteSpace=wrap;fontSize=12;fontStyle=0;container=1;pointerEvents=0;collapsible=0;recursiveResize=0;shape=mxgraph.aws4.group;grIcon=mxgraph.aws4.group_aws_cloud_alt;strokeColor=#232F3E;fillColor=none;verticalAlign=top;align=left;spacingLeft=30;fontColor=#232F3E;dashed=0;" parent="1" vertex="1">
                    <mxGeometry x="251" y="165" width="1667" height="832" as="geometry"/>
                </mxCell>
                <mxCell id="88" value="VPC" style="sketch=0;outlineConnect=0;gradientColor=none;html=1;whiteSpace=wrap;fontSize=12;fontStyle=0;shape=mxgraph.aws4.group;grIcon=mxgraph.aws4.group_vpc;strokeColor=#879196;fillColor=none;verticalAlign=top;align=left;spacingLeft=30;fontColor=#879196;dashed=0;" parent="23" vertex="1">
                    <mxGeometry x="138" y="43" width="1321" height="690" as="geometry"/>
                </mxCell>
                <mxCell id="25" value="Public subnet（ap-northeast-1a）" style="points=[[0,0],[0.25,0],[0.5,0],[0.75,0],[1,0],[1,0.25],[1,0.5],[1,0.75],[1,1],[0.75,1],[0.5,1],[0.25,1],[0,1],[0,0.75],[0,0.5],[0,0.25]];outlineConnect=0;gradientColor=none;html=1;whiteSpace=wrap;fontSize=12;fontStyle=0;container=1;pointerEvents=0;collapsible=0;recursiveResize=0;shape=mxgraph.aws4.group;grIcon=mxgraph.aws4.group_security_group;grStroke=0;strokeColor=#248814;fillColor=#C0F3B9;verticalAlign=top;align=left;spacingLeft=30;fontColor=#248814;dashed=0;" parent="23" vertex="1">
                    <mxGeometry x="295" y="66" width="391" height="448" as="geometry"/>
                </mxCell>
                <mxCell id="38" value="Public subnet（ap-northeast-1c）" style="points=[[0,0],[0.25,0],[0.5,0],[0.75,0],[1,0],[1,0.25],[1,0.5],[1,0.75],[1,1],[0.75,1],[0.5,1],[0.25,1],[0,1],[0,0.75],[0,0.5],[0,0.25]];outlineConnect=0;gradientColor=none;html=1;whiteSpace=wrap;fontSize=12;fontStyle=0;container=1;pointerEvents=0;collapsible=0;recursiveResize=0;shape=mxgraph.aws4.group;grIcon=mxgraph.aws4.group_security_group;grStroke=0;strokeColor=#248814;fillColor=#D6F3D1;verticalAlign=top;align=left;spacingLeft=30;fontColor=#248814;dashed=0;" parent="23" vertex="1">
                    <mxGeometry x="320" y="96" width="396" height="447" as="geometry"/>
                </mxCell>
                <mxCell id="43" value="Public subnet（ap-northeast-1d）" style="points=[[0,0],[0.25,0],[0.5,0],[0.75,0],[1,0],[1,0.25],[1,0.5],[1,0.75],[1,1],[0.75,1],[0.5,1],[0.25,1],[0,1],[0,0.75],[0,0.5],[0,0.25]];outlineConnect=0;gradientColor=none;html=1;whiteSpace=wrap;fontSize=12;fontStyle=0;container=1;pointerEvents=0;collapsible=0;recursiveResize=0;shape=mxgraph.aws4.group;grIcon=mxgraph.aws4.group_security_group;grStroke=0;strokeColor=#248814;fillColor=#E9F3E6;verticalAlign=top;align=left;spacingLeft=30;fontColor=#248814;dashed=0;" parent="23" vertex="1">
                    <mxGeometry x="344" y="128.13" width="408" height="445.87" as="geometry"/>
                </mxCell>
                <mxCell id="45" value="NAT gateway" style="sketch=0;outlineConnect=0;fontColor=#232F3E;gradientColor=none;strokeColor=#232F3E;fillColor=#ffffff;dashed=0;verticalLabelPosition=bottom;verticalAlign=top;align=center;html=1;fontSize=12;fontStyle=0;aspect=fixed;shape=mxgraph.aws4.resourceIcon;resIcon=mxgraph.aws4.nat_gateway;" parent="43" vertex="1">
                    <mxGeometry x="289" y="53.870000000000005" width="60" height="60" as="geometry"/>
                </mxCell>
                <mxCell id="26" value="Private subnet（ap-northeast-1a）" style="points=[[0,0],[0.25,0],[0.5,0],[0.75,0],[1,0],[1,0.25],[1,0.5],[1,0.75],[1,1],[0.75,1],[0.5,1],[0.25,1],[0,1],[0,0.75],[0,0.5],[0,0.25]];outlineConnect=0;gradientColor=none;html=1;whiteSpace=wrap;fontSize=12;fontStyle=0;container=1;pointerEvents=0;collapsible=0;recursiveResize=0;shape=mxgraph.aws4.group;grIcon=mxgraph.aws4.group_security_group;grStroke=0;strokeColor=#147EBA;fillColor=#C4E3F8;verticalAlign=top;align=left;spacingLeft=30;fontColor=#147EBA;dashed=0;" parent="23" vertex="1">
                    <mxGeometry x="917" y="68" width="417" height="453" as="geometry"/>
                </mxCell>
                <mxCell id="30" value="Amazon ECS" style="sketch=0;outlineConnect=0;fontColor=#232F3E;gradientColor=none;strokeColor=#ffffff;fillColor=#232F3E;dashed=0;verticalLabelPosition=middle;verticalAlign=bottom;align=center;html=1;whiteSpace=wrap;fontSize=10;fontStyle=1;spacing=3;shape=mxgraph.aws4.productIcon;prIcon=mxgraph.aws4.ecs;" parent="26" vertex="1">
                    <mxGeometry x="297" y="294" width="80" height="100" as="geometry"/>
                </mxCell>
                <mxCell id="55" value="Amazon RDS" style="sketch=0;outlineConnect=0;fontColor=#232F3E;gradientColor=none;strokeColor=#ffffff;fillColor=#232F3E;dashed=0;verticalLabelPosition=middle;verticalAlign=bottom;align=center;html=1;whiteSpace=wrap;fontSize=10;fontStyle=1;spacing=3;shape=mxgraph.aws4.productIcon;prIcon=mxgraph.aws4.rds;" parent="26" vertex="1">
                    <mxGeometry x="277" y="113" width="80" height="100" as="geometry"/>
                </mxCell>
                <mxCell id="56" value="Private subnet（ap-northeas-1c）" style="points=[[0,0],[0.25,0],[0.5,0],[0.75,0],[1,0],[1,0.25],[1,0.5],[1,0.75],[1,1],[0.75,1],[0.5,1],[0.25,1],[0,1],[0,0.75],[0,0.5],[0,0.25]];outlineConnect=0;gradientColor=none;html=1;whiteSpace=wrap;fontSize=12;fontStyle=0;container=1;pointerEvents=0;collapsible=0;recursiveResize=0;shape=mxgraph.aws4.group;grIcon=mxgraph.aws4.group_security_group;grStroke=0;strokeColor=#147EBA;fillColor=#D8EBF8;verticalAlign=top;align=left;spacingLeft=30;fontColor=#147EBA;dashed=0;" parent="26" vertex="1">
                    <mxGeometry x="25" y="33" width="437" height="463" as="geometry"/>
                </mxCell>
                <mxCell id="57" value="Amazon ECS" style="sketch=0;outlineConnect=0;fontColor=#232F3E;gradientColor=none;strokeColor=#ffffff;fillColor=#232F3E;dashed=0;verticalLabelPosition=middle;verticalAlign=bottom;align=center;html=1;whiteSpace=wrap;fontSize=10;fontStyle=1;spacing=3;shape=mxgraph.aws4.productIcon;prIcon=mxgraph.aws4.ecs;" parent="56" vertex="1">
                    <mxGeometry x="297" y="294" width="80" height="100" as="geometry"/>
                </mxCell>
                <mxCell id="58" value="Amazon RDS" style="sketch=0;outlineConnect=0;fontColor=#232F3E;gradientColor=none;strokeColor=#ffffff;fillColor=#232F3E;dashed=0;verticalLabelPosition=middle;verticalAlign=bottom;align=center;html=1;whiteSpace=wrap;fontSize=10;fontStyle=1;spacing=3;shape=mxgraph.aws4.productIcon;prIcon=mxgraph.aws4.rds;" parent="56" vertex="1">
                    <mxGeometry x="277" y="113" width="80" height="100" as="geometry"/>
                </mxCell>
                <mxCell id="59" value="Private subnet（ap-northeast-1d）" style="points=[[0,0],[0.25,0],[0.5,0],[0.75,0],[1,0],[1,0.25],[1,0.5],[1,0.75],[1,1],[0.75,1],[0.5,1],[0.25,1],[0,1],[0,0.75],[0,0.5],[0,0.25]];outlineConnect=0;gradientColor=none;html=1;whiteSpace=wrap;fontSize=12;fontStyle=0;container=1;pointerEvents=0;collapsible=0;recursiveResize=0;shape=mxgraph.aws4.group;grIcon=mxgraph.aws4.group_security_group;grStroke=0;strokeColor=#147EBA;fillColor=#E6F2F8;verticalAlign=top;align=left;spacingLeft=30;fontColor=#147EBA;dashed=0;" parent="56" vertex="1">
                    <mxGeometry x="32" y="35" width="437" height="460" as="geometry"/>
                </mxCell>
                <mxCell id="17" value="Amazon Route 53" style="sketch=0;outlineConnect=0;fontColor=#232F3E;gradientColor=none;strokeColor=#ffffff;fillColor=#232F3E;dashed=0;verticalLabelPosition=middle;verticalAlign=bottom;align=center;html=1;whiteSpace=wrap;fontSize=10;fontStyle=1;spacing=3;shape=mxgraph.aws4.productIcon;prIcon=mxgraph.aws4.route_53;" parent="23" vertex="1">
                    <mxGeometry x="30" y="332" width="80" height="110" as="geometry"/>
                </mxCell>
                <mxCell id="46" value="Internet&#xa;gateway" style="sketch=0;outlineConnect=0;fontColor=#232F3E;gradientColor=none;strokeColor=#232F3E;fillColor=#ffffff;dashed=0;verticalLabelPosition=bottom;verticalAlign=top;align=center;html=1;fontSize=12;fontStyle=0;aspect=fixed;shape=mxgraph.aws4.resourceIcon;resIcon=mxgraph.aws4.internet_gateway;" parent="23" vertex="1">
                    <mxGeometry x="40" y="171" width="60" height="60" as="geometry"/>
                </mxCell>
                <mxCell id="68" value="Amazon ECR" style="sketch=0;outlineConnect=0;fontColor=#232F3E;gradientColor=none;strokeColor=#ffffff;fillColor=#232F3E;dashed=0;verticalLabelPosition=middle;verticalAlign=bottom;align=center;html=1;whiteSpace=wrap;fontSize=10;fontStyle=1;spacing=3;shape=mxgraph.aws4.productIcon;prIcon=mxgraph.aws4.ecr;" parent="23" vertex="1">
                    <mxGeometry x="1553" y="337" width="80" height="100" as="geometry"/>
                </mxCell>
                <mxCell id="69" value="Amazon CloudWatch" style="sketch=0;outlineConnect=0;fontColor=#232F3E;gradientColor=none;strokeColor=#ffffff;fillColor=#232F3E;dashed=0;verticalLabelPosition=middle;verticalAlign=bottom;align=center;html=1;whiteSpace=wrap;fontSize=10;fontStyle=1;spacing=3;shape=mxgraph.aws4.productIcon;prIcon=mxgraph.aws4.cloudwatch;" parent="23" vertex="1">
                    <mxGeometry x="1553" y="655" width="80" height="110" as="geometry"/>
                </mxCell>
                <mxCell id="90" value="Parameter&#xa;Store" style="sketch=0;outlineConnect=0;fontColor=#232F3E;gradientColor=none;strokeColor=#232F3E;fillColor=#ffffff;dashed=0;verticalLabelPosition=bottom;verticalAlign=top;align=center;html=1;fontSize=12;fontStyle=0;aspect=fixed;shape=mxgraph.aws4.resourceIcon;resIcon=mxgraph.aws4.parameter_store;" parent="23" vertex="1">
                    <mxGeometry x="1563" y="490" width="60" height="60" as="geometry"/>
                </mxCell>
                <mxCell id="91" value="" style="edgeStyle=orthogonalEdgeStyle;html=1;endArrow=block;elbow=vertical;startArrow=none;endFill=1;strokeColor=#545B64;rounded=0;" parent="23" source="44" target="60" edge="1">
                    <mxGeometry width="100" relative="1" as="geometry">
                        <mxPoint x="440" y="410" as="sourcePoint"/>
                        <mxPoint x="540" y="410" as="targetPoint"/>
                    </mxGeometry>
                </mxCell>
                <mxCell id="92" value="" style="edgeStyle=orthogonalEdgeStyle;html=1;endArrow=block;elbow=vertical;startArrow=none;endFill=1;strokeColor=#545B64;rounded=0;" parent="23" source="17" target="44" edge="1">
                    <mxGeometry width="100" relative="1" as="geometry">
                        <mxPoint x="735" y="358" as="sourcePoint"/>
                        <mxPoint x="835" y="358" as="targetPoint"/>
                        <Array as="points">
                            <mxPoint x="297" y="387"/>
                            <mxPoint x="297" y="387"/>
                        </Array>
                    </mxGeometry>
                </mxCell>
                <mxCell id="94" value="Route table" style="sketch=0;outlineConnect=0;fontColor=#232F3E;gradientColor=none;strokeColor=#232F3E;fillColor=#ffffff;dashed=0;verticalLabelPosition=bottom;verticalAlign=top;align=center;html=1;fontSize=12;fontStyle=0;aspect=fixed;shape=mxgraph.aws4.resourceIcon;resIcon=mxgraph.aws4.route_table;" parent="23" vertex="1">
                    <mxGeometry x="786" y="182" width="60" height="60" as="geometry"/>
                </mxCell>
                <mxCell id="96" value="Route table" style="sketch=0;outlineConnect=0;fontColor=#232F3E;gradientColor=none;strokeColor=#232F3E;fillColor=#ffffff;dashed=0;verticalLabelPosition=bottom;verticalAlign=top;align=center;html=1;fontSize=12;fontStyle=0;aspect=fixed;shape=mxgraph.aws4.resourceIcon;resIcon=mxgraph.aws4.route_table;" parent="23" vertex="1">
                    <mxGeometry x="173" y="171" width="60" height="60" as="geometry"/>
                </mxCell>
                <mxCell id="98" value="" style="edgeStyle=orthogonalEdgeStyle;html=1;endArrow=none;elbow=vertical;startArrow=block;startFill=1;strokeColor=#545B64;rounded=0;" parent="23" source="46" target="96" edge="1">
                    <mxGeometry width="100" relative="1" as="geometry">
                        <mxPoint x="353" y="396" as="sourcePoint"/>
                        <mxPoint x="453" y="396" as="targetPoint"/>
                    </mxGeometry>
                </mxCell>
                <mxCell id="99" value="" style="edgeStyle=orthogonalEdgeStyle;html=1;endArrow=none;elbow=vertical;startArrow=block;startFill=1;strokeColor=#545B64;rounded=0;" parent="23" source="94" target="26" edge="1">
                    <mxGeometry width="100" relative="1" as="geometry">
                        <mxPoint x="689" y="398" as="sourcePoint"/>
                        <mxPoint x="789" y="398" as="targetPoint"/>
                    </mxGeometry>
                </mxCell>
                <mxCell id="100" value="" style="edgeStyle=orthogonalEdgeStyle;html=1;endArrow=none;elbow=vertical;startArrow=block;startFill=1;strokeColor=#545B64;rounded=0;" parent="23" source="45" target="94" edge="1">
                    <mxGeometry width="100" relative="1" as="geometry">
                        <mxPoint x="919" y="398" as="sourcePoint"/>
                        <mxPoint x="1019" y="398" as="targetPoint"/>
                    </mxGeometry>
                </mxCell>
                <mxCell id="101" value="" style="edgeStyle=orthogonalEdgeStyle;html=1;endArrow=none;elbow=vertical;startArrow=block;startFill=1;strokeColor=#545B64;rounded=0;" parent="23" source="96" target="25" edge="1">
                    <mxGeometry width="100" relative="1" as="geometry">
                        <mxPoint x="444" y="398" as="sourcePoint"/>
                        <mxPoint x="544" y="398" as="targetPoint"/>
                    </mxGeometry>
                </mxCell>
                <mxCell id="44" value="Application Load Balancer" style="sketch=0;outlineConnect=0;fontColor=#232F3E;gradientColor=none;strokeColor=#ffffff;fillColor=#232F3E;dashed=0;verticalLabelPosition=middle;verticalAlign=bottom;align=center;html=1;whiteSpace=wrap;fontSize=10;fontStyle=1;spacing=3;shape=mxgraph.aws4.productIcon;prIcon=mxgraph.aws4.application_load_balancer;" parent="23" vertex="1">
                    <mxGeometry x="484" y="332" width="80" height="110" as="geometry"/>
                </mxCell>
                <mxCell id="61" value="Amazon RDS" style="sketch=0;outlineConnect=0;fontColor=#232F3E;gradientColor=none;strokeColor=#ffffff;fillColor=#232F3E;dashed=0;verticalLabelPosition=middle;verticalAlign=bottom;align=center;html=1;whiteSpace=wrap;fontSize=10;fontStyle=1;spacing=3;shape=mxgraph.aws4.productIcon;prIcon=mxgraph.aws4.rds;" parent="23" vertex="1">
                    <mxGeometry x="1135" y="202" width="80" height="100" as="geometry"/>
                </mxCell>
                <mxCell id="102" value="" style="edgeStyle=orthogonalEdgeStyle;html=1;endArrow=none;elbow=vertical;startArrow=block;startFill=1;strokeColor=#545B64;rounded=0;" parent="23" source="60" target="69" edge="1">
                    <mxGeometry width="100" relative="1" as="geometry">
                        <mxPoint x="1217" y="387" as="sourcePoint"/>
                        <mxPoint x="1595" y="275.0000000000002" as="targetPoint"/>
                        <Array as="points">
                            <mxPoint x="1497" y="387"/>
                            <mxPoint x="1497" y="710"/>
                        </Array>
                    </mxGeometry>
                </mxCell>
                <mxCell id="103" value="" style="edgeStyle=orthogonalEdgeStyle;html=1;endArrow=none;elbow=vertical;startArrow=block;startFill=1;strokeColor=#545B64;rounded=0;" parent="23" source="60" target="68" edge="1">
                    <mxGeometry width="100" relative="1" as="geometry">
                        <mxPoint x="1332" y="419" as="sourcePoint"/>
                        <mxPoint x="1432" y="419" as="targetPoint"/>
                    </mxGeometry>
                </mxCell>
                <mxCell id="60" value="Amazon ECS" style="sketch=0;outlineConnect=0;fontColor=#232F3E;gradientColor=none;strokeColor=#ffffff;fillColor=#232F3E;dashed=0;verticalLabelPosition=middle;verticalAlign=bottom;align=center;html=1;whiteSpace=wrap;fontSize=10;fontStyle=1;spacing=3;shape=mxgraph.aws4.productIcon;prIcon=mxgraph.aws4.ecs;" parent="23" vertex="1">
                    <mxGeometry x="1135" y="337" width="80" height="100" as="geometry"/>
                </mxCell>
                <mxCell id="105" value="" style="edgeStyle=orthogonalEdgeStyle;html=1;endArrow=none;elbow=vertical;startArrow=block;startFill=1;strokeColor=#545B64;rounded=0;" parent="23" source="60" target="90" edge="1">
                    <mxGeometry width="100" relative="1" as="geometry">
                        <mxPoint x="1332" y="419" as="sourcePoint"/>
                        <mxPoint x="1432" y="419" as="targetPoint"/>
                        <Array as="points">
                            <mxPoint x="1497" y="387"/>
                            <mxPoint x="1497" y="529"/>
                        </Array>
                    </mxGeometry>
                </mxCell>
                <mxCell id="106" value="" style="edgeStyle=orthogonalEdgeStyle;html=1;endArrow=block;elbow=vertical;startArrow=none;endFill=1;strokeColor=#545B64;rounded=0;" parent="23" source="60" target="61" edge="1">
                    <mxGeometry width="100" relative="1" as="geometry">
                        <mxPoint x="950" y="454" as="sourcePoint"/>
                        <mxPoint x="1050" y="454" as="targetPoint"/>
                    </mxGeometry>
                </mxCell>
                <mxCell id="111" value="AWS Certificate Manager" style="sketch=0;outlineConnect=0;fontColor=#232F3E;gradientColor=none;strokeColor=#ffffff;fillColor=#232F3E;dashed=0;verticalLabelPosition=middle;verticalAlign=bottom;align=center;html=1;whiteSpace=wrap;fontSize=10;fontStyle=1;spacing=3;shape=mxgraph.aws4.productIcon;prIcon=mxgraph.aws4.certificate_manager_3;" parent="23" vertex="1">
                    <mxGeometry x="30" y="534" width="80" height="110" as="geometry"/>
                </mxCell>
                <mxCell id="112" value="" style="edgeStyle=orthogonalEdgeStyle;html=1;endArrow=none;elbow=vertical;startArrow=block;startFill=1;strokeColor=#545B64;rounded=0;" parent="23" source="111" target="44" edge="1">
                    <mxGeometry width="100" relative="1" as="geometry">
                        <mxPoint x="395" y="564" as="sourcePoint"/>
                        <mxPoint x="495" y="564" as="targetPoint"/>
                        <Array as="points">
                            <mxPoint x="524" y="589"/>
                        </Array>
                    </mxGeometry>
                </mxCell>
                <mxCell id="36" value="users" style="sketch=0;outlineConnect=0;gradientColor=none;fontColor=#545B64;strokeColor=none;fillColor=#879196;dashed=0;verticalLabelPosition=bottom;verticalAlign=top;align=center;html=1;fontSize=12;fontStyle=0;aspect=fixed;shape=mxgraph.aws4.illustration_users;pointerEvents=1" parent="1" vertex="1">
                    <mxGeometry x="75" y="502" width="100" height="100" as="geometry"/>
                </mxCell>
                <mxCell id="37" value="" style="edgeStyle=orthogonalEdgeStyle;html=1;endArrow=block;elbow=vertical;startArrow=none;endFill=1;strokeColor=#545B64;rounded=0;" parent="1" source="36" target="17" edge="1">
                    <mxGeometry width="100" relative="1" as="geometry">
                        <mxPoint x="125" y="692" as="sourcePoint"/>
                        <mxPoint x="635" y="548" as="targetPoint"/>
                    </mxGeometry>
                </mxCell>
                <mxCell id="50" value="Internet" style="sketch=0;outlineConnect=0;fontColor=#232F3E;gradientColor=none;strokeColor=#232F3E;fillColor=#ffffff;dashed=0;verticalLabelPosition=bottom;verticalAlign=top;align=center;html=1;fontSize=12;fontStyle=0;aspect=fixed;shape=mxgraph.aws4.resourceIcon;resIcon=mxgraph.aws4.internet_alt1;" parent="1" vertex="1">
                    <mxGeometry x="99" y="336" width="60" height="60" as="geometry"/>
                </mxCell>
                <mxCell id="84" style="edgeStyle=none;html=1;exitX=1;exitY=0.5;exitDx=0;exitDy=0;" parent="1" source="23" target="23" edge="1">
                    <mxGeometry relative="1" as="geometry"/>
                </mxCell>
                <mxCell id="85" style="edgeStyle=none;html=1;exitX=1;exitY=0.5;exitDx=0;exitDy=0;" parent="1" source="23" target="23" edge="1">
                    <mxGeometry relative="1" as="geometry"/>
                </mxCell>
                <mxCell id="95" value="" style="edgeStyle=orthogonalEdgeStyle;html=1;endArrow=none;elbow=vertical;startArrow=block;startFill=1;strokeColor=#545B64;rounded=0;" parent="1" source="50" target="46" edge="1">
                    <mxGeometry width="100" relative="1" as="geometry">
                        <mxPoint x="437" y="561" as="sourcePoint"/>
                        <mxPoint x="537" y="561" as="targetPoint"/>
                    </mxGeometry>
                </mxCell>
                <mxCell id="108" value="" style="shape=image;html=1;verticalAlign=top;verticalLabelPosition=bottom;labelBackgroundColor=#ffffff;imageAspect=0;aspect=fixed;image=https://cdn4.iconfinder.com/data/icons/ionicons/512/icon-social-github-128.png" parent="1" vertex="1">
                    <mxGeometry x="1986" y="275" width="108" height="108" as="geometry"/>
                </mxCell>
                <mxCell id="109" value="" style="edgeStyle=orthogonalEdgeStyle;html=1;endArrow=none;elbow=vertical;startArrow=block;startFill=1;strokeColor=#545B64;rounded=0;" parent="1" source="60" target="108" edge="1">
                    <mxGeometry width="100" relative="1" as="geometry">
                        <mxPoint x="1859" y="619" as="sourcePoint"/>
                        <mxPoint x="1959" y="619" as="targetPoint"/>
                        <Array as="points">
                            <mxPoint x="1601" y="552"/>
                            <mxPoint x="1601" y="441"/>
                            <mxPoint x="2040" y="441"/>
                        </Array>
                    </mxGeometry>
                </mxCell>
                <mxCell id="110" value="" style="edgeStyle=orthogonalEdgeStyle;html=1;endArrow=none;elbow=vertical;startArrow=block;startFill=1;strokeColor=#545B64;rounded=0;" parent="1" source="68" target="108" edge="1">
                    <mxGeometry width="100" relative="1" as="geometry">
                        <mxPoint x="1859" y="619" as="sourcePoint"/>
                        <mxPoint x="1959" y="619" as="targetPoint"/>
                    </mxGeometry>
                </mxCell>
            </root>
        </mxGraphModel>
    </diagram>
</mxfile>